<?xml version="1.0" encoding="utf-8"?>
<svg xmlns="http://www.w3.org/2000/svg" xmlns:xlink="http://www.w3.org/1999/xlink" style="margin: auto; background: rgba(241, 242, 243, 0); display: block; shape-rendering: auto;" width="100px" height="100px" viewBox="0 0 100 100" preserveAspectRatio="xMidYMid">
<g transform="rotate(0 50 50)">
  <rect x="40.5" y="30.5" rx="9.5" ry="3.5" width="19" height="7" fill="#24006a">
    <animate attributeName="opacity" values="1;0" keyTimes="0;1" dur="0.6711409395973155s" begin="-0.6358177322500883s" repeatCount="indefinite"></animate>
  </rect>
</g><g transform="rotate(18.94736842105263 50 50)">
  <rect x="40.5" y="30.5" rx="9.5" ry="3.5" width="19" height="7" fill="#24006a">
    <animate attributeName="opacity" values="1;0" keyTimes="0;1" dur="0.6711409395973155s" begin="-0.6004945249028613s" repeatCount="indefinite"></animate>
  </rect>
</g><g transform="rotate(37.89473684210526 50 50)">
  <rect x="40.5" y="30.5" rx="9.5" ry="3.5" width="19" height="7" fill="#24006a">
    <animate attributeName="opacity" values="1;0" keyTimes="0;1" dur="0.6711409395973155s" begin="-0.5651713175556341s" repeatCount="indefinite"></animate>
  </rect>
</g><g transform="rotate(56.8421052631579 50 50)">
  <rect x="40.5" y="30.5" rx="9.5" ry="3.5" width="19" height="7" fill="#24006a">
    <animate attributeName="opacity" values="1;0" keyTimes="0;1" dur="0.6711409395973155s" begin="-0.5298481102084069s" repeatCount="indefinite"></animate>
  </rect>
</g><g transform="rotate(75.78947368421052 50 50)">
  <rect x="40.5" y="30.5" rx="9.5" ry="3.5" width="19" height="7" fill="#24006a">
    <animate attributeName="opacity" values="1;0" keyTimes="0;1" dur="0.6711409395973155s" begin="-0.49452490286117984s" repeatCount="indefinite"></animate>
  </rect>
</g><g transform="rotate(94.73684210526316 50 50)">
  <rect x="40.5" y="30.5" rx="9.5" ry="3.5" width="19" height="7" fill="#24006a">
    <animate attributeName="opacity" values="1;0" keyTimes="0;1" dur="0.6711409395973155s" begin="-0.4592016955139527s" repeatCount="indefinite"></animate>
  </rect>
</g><g transform="rotate(113.6842105263158 50 50)">
  <rect x="40.5" y="30.5" rx="9.5" ry="3.5" width="19" height="7" fill="#24006a">
    <animate attributeName="opacity" values="1;0" keyTimes="0;1" dur="0.6711409395973155s" begin="-0.4238784881667256s" repeatCount="indefinite"></animate>
  </rect>
</g><g transform="rotate(132.6315789473684 50 50)">
  <rect x="40.5" y="30.5" rx="9.5" ry="3.5" width="19" height="7" fill="#24006a">
    <animate attributeName="opacity" values="1;0" keyTimes="0;1" dur="0.6711409395973155s" begin="-0.3885552808194984s" repeatCount="indefinite"></animate>
  </rect>
</g><g transform="rotate(151.57894736842104 50 50)">
  <rect x="40.5" y="30.5" rx="9.5" ry="3.5" width="19" height="7" fill="#24006a">
    <animate attributeName="opacity" values="1;0" keyTimes="0;1" dur="0.6711409395973155s" begin="-0.3532320734722713s" repeatCount="indefinite"></animate>
  </rect>
</g><g transform="rotate(170.52631578947367 50 50)">
  <rect x="40.5" y="30.5" rx="9.5" ry="3.5" width="19" height="7" fill="#24006a">
    <animate attributeName="opacity" values="1;0" keyTimes="0;1" dur="0.6711409395973155s" begin="-0.31790886612504415s" repeatCount="indefinite"></animate>
  </rect>
</g><g transform="rotate(189.47368421052633 50 50)">
  <rect x="40.5" y="30.5" rx="9.5" ry="3.5" width="19" height="7" fill="#24006a">
    <animate attributeName="opacity" values="1;0" keyTimes="0;1" dur="0.6711409395973155s" begin="-0.28258565877781705s" repeatCount="indefinite"></animate>
  </rect>
</g><g transform="rotate(208.42105263157896 50 50)">
  <rect x="40.5" y="30.5" rx="9.5" ry="3.5" width="19" height="7" fill="#24006a">
    <animate attributeName="opacity" values="1;0" keyTimes="0;1" dur="0.6711409395973155s" begin="-0.24726245143058992s" repeatCount="indefinite"></animate>
  </rect>
</g><g transform="rotate(227.3684210526316 50 50)">
  <rect x="40.5" y="30.5" rx="9.5" ry="3.5" width="19" height="7" fill="#24006a">
    <animate attributeName="opacity" values="1;0" keyTimes="0;1" dur="0.6711409395973155s" begin="-0.2119392440833628s" repeatCount="indefinite"></animate>
  </rect>
</g><g transform="rotate(246.31578947368422 50 50)">
  <rect x="40.5" y="30.5" rx="9.5" ry="3.5" width="19" height="7" fill="#24006a">
    <animate attributeName="opacity" values="1;0" keyTimes="0;1" dur="0.6711409395973155s" begin="-0.17661603673613566s" repeatCount="indefinite"></animate>
  </rect>
</g><g transform="rotate(265.2631578947368 50 50)">
  <rect x="40.5" y="30.5" rx="9.5" ry="3.5" width="19" height="7" fill="#24006a">
    <animate attributeName="opacity" values="1;0" keyTimes="0;1" dur="0.6711409395973155s" begin="-0.14129282938890853s" repeatCount="indefinite"></animate>
  </rect>
</g><g transform="rotate(284.2105263157895 50 50)">
  <rect x="40.5" y="30.5" rx="9.5" ry="3.5" width="19" height="7" fill="#24006a">
    <animate attributeName="opacity" values="1;0" keyTimes="0;1" dur="0.6711409395973155s" begin="-0.1059696220416814s" repeatCount="indefinite"></animate>
  </rect>
</g><g transform="rotate(303.1578947368421 50 50)">
  <rect x="40.5" y="30.5" rx="9.5" ry="3.5" width="19" height="7" fill="#24006a">
    <animate attributeName="opacity" values="1;0" keyTimes="0;1" dur="0.6711409395973155s" begin="-0.07064641469445426s" repeatCount="indefinite"></animate>
  </rect>
</g><g transform="rotate(322.10526315789474 50 50)">
  <rect x="40.5" y="30.5" rx="9.5" ry="3.5" width="19" height="7" fill="#24006a">
    <animate attributeName="opacity" values="1;0" keyTimes="0;1" dur="0.6711409395973155s" begin="-0.03532320734722713s" repeatCount="indefinite"></animate>
  </rect>
</g><g transform="rotate(341.05263157894734 50 50)">
  <rect x="40.5" y="30.5" rx="9.5" ry="3.5" width="19" height="7" fill="#24006a">
    <animate attributeName="opacity" values="1;0" keyTimes="0;1" dur="0.6711409395973155s" begin="0s" repeatCount="indefinite"></animate>
  </rect>
</g>
<!-- [ldio] generated by https://loading.io/ --></svg>